<mxfile host="65bd71144e">
    <diagram id="5Nldw1lNtRry5Ct4elfg" name="Page-1">
        <mxGraphModel dx="1335" dy="941" grid="1" gridSize="10" guides="1" tooltips="1" connect="1" arrows="1" fold="1" page="1" pageScale="1" pageWidth="3300" pageHeight="2339" math="0" shadow="0">
            <root>
                <mxCell id="0"/>
                <mxCell id="1" parent="0"/>
                <mxCell id="4cEb5bzzM9y0HyZmkU6f-13" value="" style="edgeStyle=orthogonalEdgeStyle;rounded=0;orthogonalLoop=1;jettySize=auto;html=1;" parent="1" source="4cEb5bzzM9y0HyZmkU6f-3" target="4cEb5bzzM9y0HyZmkU6f-12" edge="1">
                    <mxGeometry relative="1" as="geometry"/>
                </mxCell>
                <mxCell id="4cEb5bzzM9y0HyZmkU6f-36" value="" style="edgeStyle=orthogonalEdgeStyle;rounded=0;orthogonalLoop=1;jettySize=auto;html=1;" parent="1" source="4cEb5bzzM9y0HyZmkU6f-3" target="4cEb5bzzM9y0HyZmkU6f-12" edge="1">
                    <mxGeometry relative="1" as="geometry"/>
                </mxCell>
                <mxCell id="4cEb5bzzM9y0HyZmkU6f-3" value="Pilih Game" style="rounded=1;whiteSpace=wrap;html=1;arcSize=30;" parent="1" vertex="1">
                    <mxGeometry x="500" y="250" width="130" height="30" as="geometry"/>
                </mxCell>
                <mxCell id="4cEb5bzzM9y0HyZmkU6f-33" value="" style="edgeStyle=orthogonalEdgeStyle;rounded=0;orthogonalLoop=1;jettySize=auto;html=1;" parent="1" source="4cEb5bzzM9y0HyZmkU6f-4" target="5" edge="1">
                    <mxGeometry relative="1" as="geometry"/>
                </mxCell>
                <mxCell id="4cEb5bzzM9y0HyZmkU6f-4" value="Start" style="ellipse;whiteSpace=wrap;html=1;" parent="1" vertex="1">
                    <mxGeometry x="520" y="40" width="90" height="50" as="geometry"/>
                </mxCell>
                <mxCell id="4cEb5bzzM9y0HyZmkU6f-52" value="" style="edgeStyle=orthogonalEdgeStyle;rounded=0;orthogonalLoop=1;jettySize=auto;html=1;" parent="1" source="4cEb5bzzM9y0HyZmkU6f-5" edge="1">
                    <mxGeometry relative="1" as="geometry">
                        <mxPoint x="565" y="460" as="targetPoint"/>
                    </mxGeometry>
                </mxCell>
                <mxCell id="4cEb5bzzM9y0HyZmkU6f-5" value="Pilih voucher game yang dipilih" style="rounded=1;whiteSpace=wrap;html=1;arcSize=30;" parent="1" vertex="1">
                    <mxGeometry x="500" y="380" width="130" height="40" as="geometry"/>
                </mxCell>
                <mxCell id="4cEb5bzzM9y0HyZmkU6f-58" value="" style="edgeStyle=orthogonalEdgeStyle;rounded=0;orthogonalLoop=1;jettySize=auto;html=1;" parent="1" source="4cEb5bzzM9y0HyZmkU6f-10" edge="1">
                    <mxGeometry relative="1" as="geometry">
                        <mxPoint x="1570" y="360" as="targetPoint"/>
                    </mxGeometry>
                </mxCell>
                <mxCell id="4cEb5bzzM9y0HyZmkU6f-10" value="&amp;nbsp;Tampilan harga yang harus dibayar" style="rounded=1;whiteSpace=wrap;html=1;arcSize=30;" parent="1" vertex="1">
                    <mxGeometry x="1505" y="390" width="130" height="40" as="geometry"/>
                </mxCell>
                <mxCell id="4cEb5bzzM9y0HyZmkU6f-50" value="" style="edgeStyle=orthogonalEdgeStyle;rounded=0;orthogonalLoop=1;jettySize=auto;html=1;" parent="1" source="4cEb5bzzM9y0HyZmkU6f-12" target="4cEb5bzzM9y0HyZmkU6f-5" edge="1">
                    <mxGeometry relative="1" as="geometry"/>
                </mxCell>
                <mxCell id="4cEb5bzzM9y0HyZmkU6f-12" value="Input ID user pada game yang dipilih" style="rounded=1;whiteSpace=wrap;html=1;arcSize=30;" parent="1" vertex="1">
                    <mxGeometry x="500" y="310" width="130" height="40" as="geometry"/>
                </mxCell>
                <mxCell id="4cEb5bzzM9y0HyZmkU6f-30" value="Sudah" style="text;html=1;align=center;verticalAlign=middle;resizable=0;points=[];autosize=1;strokeColor=none;fillColor=none;" parent="1" vertex="1">
                    <mxGeometry x="740" y="570" width="50" height="20" as="geometry"/>
                </mxCell>
                <mxCell id="4cEb5bzzM9y0HyZmkU6f-38" style="edgeStyle=orthogonalEdgeStyle;rounded=0;orthogonalLoop=1;jettySize=auto;html=1;entryX=0.5;entryY=0;entryDx=0;entryDy=0;" parent="1" source="4cEb5bzzM9y0HyZmkU6f-32" target="4cEb5bzzM9y0HyZmkU6f-3" edge="1">
                    <mxGeometry relative="1" as="geometry"/>
                </mxCell>
                <mxCell id="4cEb5bzzM9y0HyZmkU6f-32" value="Homepage" style="rounded=1;whiteSpace=wrap;html=1;arcSize=30;" parent="1" vertex="1">
                    <mxGeometry x="500" y="180" width="130" height="30" as="geometry"/>
                </mxCell>
                <mxCell id="4cEb5bzzM9y0HyZmkU6f-44" value="" style="edgeStyle=orthogonalEdgeStyle;rounded=0;orthogonalLoop=1;jettySize=auto;html=1;" parent="1" source="4cEb5bzzM9y0HyZmkU6f-41" target="4cEb5bzzM9y0HyZmkU6f-70" edge="1">
                    <mxGeometry relative="1" as="geometry">
                        <mxPoint x="1695" y="150" as="targetPoint"/>
                    </mxGeometry>
                </mxCell>
                <mxCell id="4cEb5bzzM9y0HyZmkU6f-91" value="" style="edgeStyle=orthogonalEdgeStyle;rounded=0;orthogonalLoop=1;jettySize=auto;html=1;" parent="1" source="4cEb5bzzM9y0HyZmkU6f-41" target="4cEb5bzzM9y0HyZmkU6f-92" edge="1">
                    <mxGeometry relative="1" as="geometry">
                        <mxPoint x="1470" y="190" as="targetPoint"/>
                    </mxGeometry>
                </mxCell>
                <mxCell id="4cEb5bzzM9y0HyZmkU6f-41" value="Sudah DIbayar dalam 5 menit?" style="rhombus;whiteSpace=wrap;html=1;rounded=1;arcSize=0;" parent="1" vertex="1">
                    <mxGeometry x="1515" y="145" width="110" height="90" as="geometry"/>
                </mxCell>
                <mxCell id="4cEb5bzzM9y0HyZmkU6f-54" value="" style="edgeStyle=orthogonalEdgeStyle;rounded=0;orthogonalLoop=1;jettySize=auto;html=1;" parent="1" source="4cEb5bzzM9y0HyZmkU6f-51" target="4cEb5bzzM9y0HyZmkU6f-53" edge="1">
                    <mxGeometry relative="1" as="geometry"/>
                </mxCell>
                <mxCell id="4cEb5bzzM9y0HyZmkU6f-56" style="edgeStyle=orthogonalEdgeStyle;rounded=0;orthogonalLoop=1;jettySize=auto;html=1;entryX=0;entryY=0.5;entryDx=0;entryDy=0;" parent="1" source="4cEb5bzzM9y0HyZmkU6f-51" target="4cEb5bzzM9y0HyZmkU6f-12" edge="1">
                    <mxGeometry relative="1" as="geometry">
                        <Array as="points">
                            <mxPoint x="400" y="590"/>
                            <mxPoint x="400" y="330"/>
                        </Array>
                    </mxGeometry>
                </mxCell>
                <mxCell id="4cEb5bzzM9y0HyZmkU6f-51" value="ID sudah&lt;br&gt;diisi?" style="rhombus;whiteSpace=wrap;html=1;rounded=1;arcSize=0;" parent="1" vertex="1">
                    <mxGeometry x="525" y="550" width="80" height="80" as="geometry"/>
                </mxCell>
                <mxCell id="4cEb5bzzM9y0HyZmkU6f-64" style="edgeStyle=orthogonalEdgeStyle;rounded=0;orthogonalLoop=1;jettySize=auto;html=1;" parent="1" source="4cEb5bzzM9y0HyZmkU6f-53" target="4cEb5bzzM9y0HyZmkU6f-5" edge="1">
                    <mxGeometry relative="1" as="geometry">
                        <Array as="points">
                            <mxPoint x="700" y="400"/>
                        </Array>
                    </mxGeometry>
                </mxCell>
                <mxCell id="4cEb5bzzM9y0HyZmkU6f-66" style="edgeStyle=orthogonalEdgeStyle;rounded=0;orthogonalLoop=1;jettySize=auto;html=1;" parent="1" source="4cEb5bzzM9y0HyZmkU6f-53" edge="1">
                    <mxGeometry relative="1" as="geometry">
                        <mxPoint x="800" y="590" as="targetPoint"/>
                    </mxGeometry>
                </mxCell>
                <mxCell id="4cEb5bzzM9y0HyZmkU6f-53" value="&lt;span&gt;Voucher &lt;br&gt;sudah&lt;/span&gt;&lt;br&gt;&lt;span&gt;dipilih?&lt;/span&gt;" style="rhombus;whiteSpace=wrap;html=1;rounded=1;arcSize=0;" parent="1" vertex="1">
                    <mxGeometry x="660" y="550" width="80" height="80" as="geometry"/>
                </mxCell>
                <mxCell id="4cEb5bzzM9y0HyZmkU6f-55" value="Sudah" style="text;html=1;align=center;verticalAlign=middle;resizable=0;points=[];autosize=1;strokeColor=none;fillColor=none;" parent="1" vertex="1">
                    <mxGeometry x="605" y="570" width="50" height="20" as="geometry"/>
                </mxCell>
                <mxCell id="4cEb5bzzM9y0HyZmkU6f-57" value="Belum" style="text;html=1;align=center;verticalAlign=middle;resizable=0;points=[];autosize=1;strokeColor=none;fillColor=none;" parent="1" vertex="1">
                    <mxGeometry x="470" y="570" width="50" height="20" as="geometry"/>
                </mxCell>
                <mxCell id="4cEb5bzzM9y0HyZmkU6f-61" value="" style="edgeStyle=orthogonalEdgeStyle;rounded=0;orthogonalLoop=1;jettySize=auto;html=1;" parent="1" source="4cEb5bzzM9y0HyZmkU6f-60" target="4cEb5bzzM9y0HyZmkU6f-51" edge="1">
                    <mxGeometry relative="1" as="geometry"/>
                </mxCell>
                <mxCell id="4cEb5bzzM9y0HyZmkU6f-60" value="Konfirmasi Pembelian" style="rounded=1;whiteSpace=wrap;html=1;arcSize=30;" parent="1" vertex="1">
                    <mxGeometry x="500" y="460" width="130" height="40" as="geometry"/>
                </mxCell>
                <mxCell id="4cEb5bzzM9y0HyZmkU6f-65" value="belum" style="text;html=1;align=center;verticalAlign=middle;resizable=0;points=[];autosize=1;strokeColor=none;fillColor=none;" parent="1" vertex="1">
                    <mxGeometry x="650" y="530" width="50" height="20" as="geometry"/>
                </mxCell>
                <mxCell id="4cEb5bzzM9y0HyZmkU6f-72" value="" style="edgeStyle=orthogonalEdgeStyle;rounded=0;orthogonalLoop=1;jettySize=auto;html=1;" parent="1" target="4cEb5bzzM9y0HyZmkU6f-71" edge="1">
                    <mxGeometry relative="1" as="geometry">
                        <mxPoint x="1570.058823529412" y="620" as="sourcePoint"/>
                    </mxGeometry>
                </mxCell>
                <mxCell id="3" value="" style="edgeStyle=none;html=1;" edge="1" parent="1" source="4cEb5bzzM9y0HyZmkU6f-67" target="7">
                    <mxGeometry relative="1" as="geometry">
                        <mxPoint x="846" y="530" as="targetPoint"/>
                    </mxGeometry>
                </mxCell>
                <mxCell id="4cEb5bzzM9y0HyZmkU6f-67" value="&lt;span&gt;Tampilan harga yang harus dibayar&lt;/span&gt;" style="rounded=1;whiteSpace=wrap;html=1;arcSize=30;" parent="1" vertex="1">
                    <mxGeometry x="800" y="570" width="100" height="50" as="geometry"/>
                </mxCell>
                <mxCell id="4cEb5bzzM9y0HyZmkU6f-70" value="End" style="ellipse;whiteSpace=wrap;html=1;" parent="1" vertex="1">
                    <mxGeometry x="1680" y="165" width="90" height="50" as="geometry"/>
                </mxCell>
                <mxCell id="4cEb5bzzM9y0HyZmkU6f-78" style="edgeStyle=orthogonalEdgeStyle;rounded=0;orthogonalLoop=1;jettySize=auto;html=1;" parent="1" source="4cEb5bzzM9y0HyZmkU6f-71" target="4cEb5bzzM9y0HyZmkU6f-74" edge="1">
                    <mxGeometry relative="1" as="geometry"/>
                </mxCell>
                <mxCell id="4cEb5bzzM9y0HyZmkU6f-79" style="edgeStyle=orthogonalEdgeStyle;rounded=0;orthogonalLoop=1;jettySize=auto;html=1;" parent="1" source="4cEb5bzzM9y0HyZmkU6f-71" target="4cEb5bzzM9y0HyZmkU6f-75" edge="1">
                    <mxGeometry relative="1" as="geometry"/>
                </mxCell>
                <mxCell id="4cEb5bzzM9y0HyZmkU6f-80" style="edgeStyle=orthogonalEdgeStyle;rounded=0;orthogonalLoop=1;jettySize=auto;html=1;" parent="1" source="4cEb5bzzM9y0HyZmkU6f-71" target="4cEb5bzzM9y0HyZmkU6f-76" edge="1">
                    <mxGeometry relative="1" as="geometry"/>
                </mxCell>
                <mxCell id="4cEb5bzzM9y0HyZmkU6f-71" value="Metode" style="rhombus;whiteSpace=wrap;html=1;rounded=1;arcSize=0;" parent="1" vertex="1">
                    <mxGeometry x="1530" y="520" width="80" height="80" as="geometry"/>
                </mxCell>
                <mxCell id="4cEb5bzzM9y0HyZmkU6f-81" style="edgeStyle=orthogonalEdgeStyle;rounded=0;orthogonalLoop=1;jettySize=auto;html=1;" parent="1" source="4cEb5bzzM9y0HyZmkU6f-74" target="4cEb5bzzM9y0HyZmkU6f-10" edge="1">
                    <mxGeometry relative="1" as="geometry"/>
                </mxCell>
                <mxCell id="4cEb5bzzM9y0HyZmkU6f-74" value="Ovo" style="rounded=1;whiteSpace=wrap;html=1;arcSize=30;" parent="1" vertex="1">
                    <mxGeometry x="1440" y="470" width="70" height="30" as="geometry"/>
                </mxCell>
                <mxCell id="4cEb5bzzM9y0HyZmkU6f-82" style="edgeStyle=orthogonalEdgeStyle;rounded=0;orthogonalLoop=1;jettySize=auto;html=1;entryX=0.5;entryY=1;entryDx=0;entryDy=0;" parent="1" source="4cEb5bzzM9y0HyZmkU6f-75" target="4cEb5bzzM9y0HyZmkU6f-10" edge="1">
                    <mxGeometry relative="1" as="geometry"/>
                </mxCell>
                <mxCell id="4cEb5bzzM9y0HyZmkU6f-75" value="Gopay" style="rounded=1;whiteSpace=wrap;html=1;arcSize=30;" parent="1" vertex="1">
                    <mxGeometry x="1535" y="470" width="70" height="30" as="geometry"/>
                </mxCell>
                <mxCell id="4cEb5bzzM9y0HyZmkU6f-84" style="edgeStyle=orthogonalEdgeStyle;rounded=0;orthogonalLoop=1;jettySize=auto;html=1;" parent="1" source="4cEb5bzzM9y0HyZmkU6f-76" target="4cEb5bzzM9y0HyZmkU6f-10" edge="1">
                    <mxGeometry relative="1" as="geometry"/>
                </mxCell>
                <mxCell id="4cEb5bzzM9y0HyZmkU6f-76" value="Dana" style="rounded=1;whiteSpace=wrap;html=1;arcSize=30;" parent="1" vertex="1">
                    <mxGeometry x="1630" y="470" width="70" height="30" as="geometry"/>
                </mxCell>
                <mxCell id="4cEb5bzzM9y0HyZmkU6f-87" value="" style="edgeStyle=orthogonalEdgeStyle;rounded=0;orthogonalLoop=1;jettySize=auto;html=1;" parent="1" source="4cEb5bzzM9y0HyZmkU6f-85" target="4cEb5bzzM9y0HyZmkU6f-86" edge="1">
                    <mxGeometry relative="1" as="geometry"/>
                </mxCell>
                <mxCell id="4cEb5bzzM9y0HyZmkU6f-85" value="Input nomor pembeli" style="rounded=1;whiteSpace=wrap;html=1;arcSize=30;" parent="1" vertex="1">
                    <mxGeometry x="1505" y="330" width="130" height="30" as="geometry"/>
                </mxCell>
                <mxCell id="4cEb5bzzM9y0HyZmkU6f-88" style="edgeStyle=orthogonalEdgeStyle;rounded=0;orthogonalLoop=1;jettySize=auto;html=1;" parent="1" source="4cEb5bzzM9y0HyZmkU6f-86" target="4cEb5bzzM9y0HyZmkU6f-41" edge="1">
                    <mxGeometry relative="1" as="geometry"/>
                </mxCell>
                <mxCell id="4cEb5bzzM9y0HyZmkU6f-86" value="Bayar" style="rounded=1;whiteSpace=wrap;html=1;arcSize=30;" parent="1" vertex="1">
                    <mxGeometry x="1505" y="270" width="130" height="30" as="geometry"/>
                </mxCell>
                <mxCell id="4cEb5bzzM9y0HyZmkU6f-89" value="Sudah" style="text;html=1;align=center;verticalAlign=middle;resizable=0;points=[];autosize=1;strokeColor=none;fillColor=none;" parent="1" vertex="1">
                    <mxGeometry x="1620" y="175" width="50" height="20" as="geometry"/>
                </mxCell>
                <mxCell id="4cEb5bzzM9y0HyZmkU6f-95" style="edgeStyle=orthogonalEdgeStyle;rounded=0;orthogonalLoop=1;jettySize=auto;html=1;" parent="1" source="4cEb5bzzM9y0HyZmkU6f-92" target="4cEb5bzzM9y0HyZmkU6f-70" edge="1">
                    <mxGeometry relative="1" as="geometry">
                        <Array as="points">
                            <mxPoint x="1425" y="120"/>
                            <mxPoint x="1725" y="120"/>
                        </Array>
                    </mxGeometry>
                </mxCell>
                <mxCell id="4cEb5bzzM9y0HyZmkU6f-92" value="Batal" style="rounded=1;whiteSpace=wrap;html=1;arcSize=30;" parent="1" vertex="1">
                    <mxGeometry x="1390" y="175" width="70" height="30" as="geometry"/>
                </mxCell>
                <mxCell id="4cEb5bzzM9y0HyZmkU6f-93" value="Belum" style="text;html=1;align=center;verticalAlign=middle;resizable=0;points=[];autosize=1;strokeColor=none;fillColor=none;" parent="1" vertex="1">
                    <mxGeometry x="1465" y="175" width="50" height="20" as="geometry"/>
                </mxCell>
                <mxCell id="2" value="End" style="ellipse;whiteSpace=wrap;html=1;" vertex="1" parent="1">
                    <mxGeometry x="805" y="300" width="90" height="50" as="geometry"/>
                </mxCell>
                <mxCell id="6" style="edgeStyle=none;html=1;" edge="1" parent="1" source="5" target="4cEb5bzzM9y0HyZmkU6f-32">
                    <mxGeometry relative="1" as="geometry"/>
                </mxCell>
                <mxCell id="5" value="Landing Page" style="rounded=1;whiteSpace=wrap;html=1;arcSize=30;" vertex="1" parent="1">
                    <mxGeometry x="500" y="115" width="130" height="30" as="geometry"/>
                </mxCell>
                <mxCell id="9" value="" style="edgeStyle=none;html=1;" edge="1" parent="1" source="7" target="8">
                    <mxGeometry relative="1" as="geometry"/>
                </mxCell>
                <mxCell id="7" value="Konfirmasi Pembayaran" style="rounded=1;whiteSpace=wrap;html=1;arcSize=30;" vertex="1" parent="1">
                    <mxGeometry x="785" y="510" width="130" height="30" as="geometry"/>
                </mxCell>
                <mxCell id="12" value="" style="edgeStyle=none;html=1;" edge="1" parent="1" source="8" target="11">
                    <mxGeometry relative="1" as="geometry"/>
                </mxCell>
                <mxCell id="8" value="Pembayaran Berhasil" style="rounded=1;whiteSpace=wrap;html=1;arcSize=30;" vertex="1" parent="1">
                    <mxGeometry x="785" y="450" width="130" height="30" as="geometry"/>
                </mxCell>
                <mxCell id="13" value="" style="edgeStyle=none;html=1;" edge="1" parent="1" source="11" target="2">
                    <mxGeometry relative="1" as="geometry"/>
                </mxCell>
                <mxCell id="11" value="Rating Layanan" style="rounded=1;whiteSpace=wrap;html=1;arcSize=30;" vertex="1" parent="1">
                    <mxGeometry x="785" y="390" width="130" height="30" as="geometry"/>
                </mxCell>
            </root>
        </mxGraphModel>
    </diagram>
</mxfile>